<svg xmlns="http://www.w3.org/2000/svg" viewBox="0 0 267.55 245.51"><defs><style>.cls-1{fill:#ececec;}.cls-2{fill:#eb9110;}.cls-3{fill:#fff;}</style></defs><g id="Layer_2" data-name="Layer 2"><g id="Layer_1-2" data-name="Layer 1"><path class="cls-1" d="M255.3,213.13a49.69,49.69,0,0,1,12.22-32.34l0,0H12.26a48.89,48.89,0,0,0,0,64.76H267.49l0,0A49.65,49.65,0,0,1,255.3,213.13Z"/><path class="cls-2" d="M267.55,190.45v-9.7L226.71,0H48.05L43.73,18.66a.5.5,0,0,0,0,.12L1.33,201.9h0A48,48,0,0,0,0,213.13a49.62,49.62,0,0,0,12.26,32.38H267.55v-9.7H15.66a48.2,48.2,0,0,1,0-45.36Z"/><path class="cls-3" d="M81.66,14.66c-2.11,0-4,1.3-4.21,3-.71,6.47-1.2,10.14-2.31,18A3.92,3.92,0,0,0,78.39,40q25.19,4.06,50.25,8.78c-.17,8.68-.27,13.27-.49,22.72l-58.53-.23L67.77,82.51l65.73.11c2.07,0,3.75-2,3.74-4.46q-.13-17-.32-34.08c0-2.16-1.48-4.15-3.24-4.47q-24.12-4.45-48.36-8.27c.49-3.75.71-5.55,1.12-9q60.53.27,121.05.58c-.49-3.44-.71-5.1-1.09-8.3Z"/><path class="cls-3" d="M192.22,40.71,148,40.34c-1.79,0-3.17,1.7-3.08,3.85q.8,19.23,1.52,38.45l9.42,0c-.35-5.14-.53-7.68-.88-12.67l42.39.17c4.61,0,7.7-4.08,6.79-9s-1.38-7.36-2.23-12.08A10.49,10.49,0,0,0,192.22,40.71Zm1.12,14.74a3.27,3.27,0,0,1-3.12,4.12l-36-.24c-.26-3.71-.39-5.53-.65-9.11l35.11.28a4.92,4.92,0,0,1,4.49,4.08Z"/><path class="cls-3" d="M210.06,115.43q-33.36,5.67-66.75,11.21a5.48,5.48,0,0,0-4.26,5.32c0,13.6-.05,27.19-.24,40.79h12c-.12-11.76-.38-23.52-.71-35.28Q178,133,205.76,128.36c1.49,9.57,2.86,19.17,4.05,28.78.31,2.49.79,6.53,1.06,9,.3,2.66.44,4,.71,6.62h11.06c-1.49-13.91-3.56-27.73-5.73-41.55-.41-2.53-1.1-6.68-1.54-9.21l-.45-2.65A4.45,4.45,0,0,0,210.06,115.43Z"/><path class="cls-3" d="M119.55,127.5l-50.09.29c-5,0-9.81,4.51-10.69,9.89q-2.87,17.52-5.46,35.07h11c.67-4.79,1-7.26,1.76-12.28l49.93-.19c-.31,5.08-.46,7.58-.77,12.47h12q.67-17.75,1.18-35.49C128.6,131.89,124.59,127.47,119.55,127.5Zm-2.84,21.62-48.95.27c.32-2.19.49-3.29.82-5.5a5.47,5.47,0,0,1,5-4.6l39.22-.23a4.19,4.19,0,0,1,4.18,4.55C116.9,145.83,116.84,146.93,116.71,149.12Z"/><path class="cls-3" d="M53.93,105l158.35-.46c-.83-4.54-1.24-6.81-2.08-11.3L56,93.29C55.15,97.93,54.75,100.27,53.93,105Z"/></g></g></svg>